<svg width="177" height="45" viewBox="0 0 177 45" fill="none" xmlns="http://www.w3.org/2000/svg">
<path fill-rule="evenodd" clip-rule="evenodd" d="M34.4514 43.7785V41.2769C34.2013 41.2727 33.9697 41.2368 33.7564 41.1723C33.5441 41.1079 33.3615 41.0424 33.2106 40.978C32.6517 40.8153 32.1769 40.5163 31.7864 40.0811C31.396 39.6458 30.973 38.8556 30.5158 37.7094C30.0604 36.5643 29.4523 34.8434 28.695 32.5489C27.9351 30.2596 27.1497 27.7591 26.3389 25.0483C25.5273 22.3376 24.7823 19.78 24.1031 17.3735C23.4248 14.9681 22.9035 13.0781 22.5411 11.7038C22.2059 10.3452 21.8839 8.69932 21.5733 6.76715C21.2635 4.83392 21.0397 3.05386 20.9037 1.42699L19.4146 0.351562C18.6617 0.763563 18.0089 1.16394 17.4543 1.55376C16.9006 1.94357 16.346 2.3598 15.7923 2.80138C15.2956 3.23662 14.9359 3.73947 14.7121 4.30994C14.4892 4.87934 14.2532 5.59136 14.0057 6.44494C13.7232 7.36191 13.2739 8.92011 12.6579 11.1196C12.0419 13.319 11.3162 15.8607 10.4817 18.7447C9.6472 21.6277 8.76093 24.555 7.82201 27.5235C6.88396 30.491 5.95118 33.2038 5.02279 35.6579C4.36642 37.4855 3.68198 38.8662 2.96945 39.8043C2.2578 40.7424 1.28729 41.391 0.0605469 41.7534L0.308879 44.256C1.31537 44.1324 2.35345 44.0225 3.42224 43.9275C4.49191 43.8334 5.35624 43.7838 6.01612 43.7785C6.79621 43.7912 7.50523 43.8408 8.14317 43.9275C8.78111 44.0151 9.4287 44.0659 10.0851 44.0775C10.3922 44.0806 10.6712 44.0595 10.9222 44.0173C11.1732 43.975 11.4899 43.8958 11.8717 43.7785L11.9208 41.3371C11.2679 41.2875 10.6888 41.2072 10.1842 41.0973C9.21635 40.9273 8.57139 40.6558 8.24935 40.2839C7.92643 39.911 7.77725 39.3838 7.8027 38.7067C7.81937 37.9503 8.03261 36.7576 8.44064 35.1276C8.84956 33.4975 9.34797 31.6615 9.9359 29.6205C10.0333 29.1726 10.2114 28.8419 10.4694 28.6264C10.7283 28.4109 11.2284 28.3031 11.9708 28.3042C13.1677 28.2926 14.3716 28.2429 15.5808 28.1563C16.7909 28.0686 17.8202 28.019 18.6705 28.0074C19.3155 27.9968 19.7621 28.076 20.0096 28.2461C20.0175 28.2609 20.0648 28.3634 20.1535 28.5514C20.2412 28.7405 20.3255 28.9159 20.4071 29.0817C20.9151 30.9991 21.4136 32.9345 21.9023 34.8878C22.3911 36.8432 22.6543 38.2545 22.6903 39.125C22.6842 39.8254 22.4481 40.3367 21.983 40.6568C21.518 40.9769 20.8599 41.203 20.0096 41.3371C19.6542 41.4555 19.3242 41.5146 19.018 41.5146L19.2163 44.0775C20.1903 43.9602 21.4057 43.881 22.8641 43.8387C24.3216 43.7954 25.5369 43.7764 26.5109 43.7785C28.0404 43.7944 29.3242 43.8535 30.3631 43.9581C31.403 44.0627 32.2524 44.1229 32.9132 44.1366C33.2001 44.1366 33.4572 44.1071 33.6818 44.0479C33.9074 43.9877 34.1636 43.8989 34.4514 43.7785ZM19.018 25.2057C18.9662 25.2649 18.8837 25.3093 18.7697 25.3399C18.6565 25.3695 18.524 25.3843 18.373 25.3843C17.6772 25.4107 16.7225 25.4181 15.5071 25.4065C14.2909 25.3959 13.1124 25.3885 11.9708 25.3843C11.8225 25.3906 11.697 25.3938 11.5926 25.3917C11.4882 25.3906 11.3987 25.3494 11.3259 25.2649C11.2346 25.0948 11.2679 24.7768 11.425 24.3089C11.6181 23.6401 11.9155 22.6418 12.3183 21.3171C12.7202 19.9934 13.1616 18.5356 13.6416 16.9457C14.1216 15.3547 14.5735 13.8261 14.9982 12.3608C15.0517 12.1401 15.1307 11.9383 15.2333 11.7555C15.3369 11.5717 15.4404 11.4756 15.544 11.464C15.7046 11.4809 15.8055 11.5971 15.8476 11.8157C15.8906 12.0323 15.9546 12.2541 16.0398 12.4802C16.5373 14.611 17.0313 16.6066 17.5227 18.469C18.0141 20.3315 18.4959 22.1781 18.968 24.0109C19.0197 24.2539 19.0522 24.4832 19.0671 24.6976C19.082 24.9121 19.0654 25.08 19.018 25.2057Z" fill="#0075BF"/>
<path fill-rule="evenodd" clip-rule="evenodd" d="M61.2867 43.3644V41.335L59.1526 40.9769C59.0754 40.0768 59.042 38.8482 59.0552 37.2911C59.0675 35.7339 59.0947 34.107 59.1342 32.4094C59.1745 30.7139 59.1965 29.2053 59.2017 27.8869C59.2088 25.8776 59.035 24.2201 58.6814 22.9154C58.3286 21.6108 57.7583 20.5205 56.9711 19.6479C56.3674 18.9814 55.6777 18.4479 54.9011 18.0496C54.1245 17.6513 53.3102 17.4474 52.459 17.4379C51.3578 17.4284 50.3311 17.6851 49.3799 18.207C48.4278 18.7289 47.302 19.5666 46.0024 20.7234C45.8085 20.9051 45.6365 21.0498 45.4873 21.1565C45.3364 21.2643 45.1776 21.3181 45.0091 21.3213C44.888 21.3213 44.8073 21.2315 44.7669 21.053C44.7265 20.8723 44.7081 20.604 44.7108 20.2459C44.7072 19.3395 44.5168 18.6275 44.1413 18.1098C43.7657 17.5922 43.2278 17.3281 42.5302 17.3175C41.4438 17.3957 40.3066 17.8531 39.1211 18.6919C37.9347 19.5317 36.9712 20.2871 36.2306 20.9621V22.271C36.4412 22.5774 36.7036 22.9186 37.0186 23.2926C37.3345 23.6676 37.6346 24.0236 37.9189 24.3617C38.1681 24.7958 38.3638 25.2121 38.5077 25.6093C38.6516 26.0065 38.7368 26.4671 38.7622 26.9911C38.8122 27.8235 38.8491 28.862 38.8736 30.1064C38.8982 31.3498 38.9114 32.6429 38.9114 33.9834C38.9114 34.5983 38.9052 35.3948 38.8929 36.3741C38.8798 37.3545 38.8596 38.2968 38.8298 39.2032C38.8008 40.1106 38.7622 40.7603 38.7131 41.1554L36.2306 41.8125C36.228 42.2351 36.2587 42.646 36.3245 43.0432C36.3895 43.4426 36.507 43.806 36.6781 44.1356C37.4188 44.0183 38.0839 43.9285 38.6745 43.8693C39.2659 43.8091 39.8073 43.7795 40.2996 43.7795C40.8612 43.7922 41.6088 43.8408 42.5425 43.9285C43.4761 44.0151 44.1992 44.0648 44.7108 44.0764C45.1934 44.0817 45.6321 44.0426 46.027 43.9581C46.4227 43.8736 46.8615 43.7151 47.3432 43.4827L47.2941 41.335C47.0598 41.3139 46.8071 41.2959 46.5359 41.2822C46.2648 41.2695 46.0375 41.2072 45.8533 41.0963C45.5602 41.0699 45.3461 40.9103 45.2109 40.6188C45.0767 40.3251 44.9916 39.5824 44.9556 38.3866C44.9205 37.1918 44.9047 35.2247 44.9091 32.4897C44.8985 30.7212 44.9091 29.0574 44.9407 27.4981C44.9722 25.9399 45.0951 24.874 45.3066 24.3014C45.5839 23.7817 46.0972 23.356 46.8466 23.0242C47.5951 22.6915 48.2585 22.5193 48.8332 22.5077C49.6081 22.5235 50.2802 22.7327 50.8506 23.1362C51.421 23.5398 51.858 24.0479 52.1607 24.6596C52.4108 25.3346 52.6056 26.1364 52.7442 27.0661C52.8829 27.9947 52.9531 29.4842 52.9557 31.5336C52.9566 32.9334 52.9417 34.2708 52.9118 35.5448C52.882 36.8189 52.8302 37.8721 52.7565 38.7056C52.6828 39.5011 52.5564 40.0916 52.3774 40.4751C52.1993 40.8607 51.9606 41.1068 51.664 41.2156C51.3982 41.3065 51.1604 41.3931 50.9506 41.4776C50.74 41.56 50.5145 41.6329 50.2732 41.6931C50.1977 42.2435 50.1872 42.6957 50.2425 43.0517C50.2969 43.4056 50.4233 43.7679 50.6207 44.1356C51.3306 44.0183 52.0466 43.9285 52.7688 43.8693C53.4901 43.8091 54.1307 43.7795 54.6905 43.7795C55.3206 43.7922 56.0313 43.8408 56.8228 43.9285C57.6135 44.0151 58.2742 44.0648 58.806 44.0764C59.2991 44.0764 59.7502 44.0183 60.1573 43.8989C60.5645 43.7795 60.9409 43.6021 61.2867 43.3644Z" fill="#0075BF"/>
<path fill-rule="evenodd" clip-rule="evenodd" d="M80.2954 35.8975C80.277 34.5241 79.9673 33.2966 79.3662 32.2148C78.7651 31.133 77.9841 30.1886 77.0241 29.3836C76.4345 28.8776 75.7798 28.3663 75.0585 27.8518C74.3381 27.3374 73.5212 26.8123 72.6068 26.2757C71.8215 25.8013 71.1809 25.27 70.6877 24.6847C70.1937 24.0973 69.9392 23.4329 69.9234 22.6902C69.9498 21.7775 70.2832 21.0454 70.9238 20.4929C71.5643 19.9404 72.3567 19.6562 73.3018 19.6414C74.4899 19.6298 75.4157 19.9678 76.0817 20.6577C76.7468 21.3475 77.1768 22.4631 77.3707 24.0044C77.4646 24.1586 77.7972 24.2537 78.3685 24.2885C78.9397 24.3234 79.3337 24.2685 79.5522 24.1237C79.5583 23.7804 79.5829 23.4212 79.6259 23.0483C79.6698 22.6744 79.6944 22.1969 79.7005 21.6137C79.7075 20.9006 79.5706 20.2805 79.2916 19.7544C79.0134 19.2283 78.5545 18.7741 77.9165 18.3906C77.1996 17.9448 76.4143 17.6152 75.5613 17.4007C74.7075 17.1852 73.7721 17.0785 72.756 17.0796C70.3402 17.1039 68.422 17.7863 66.9996 19.1301C65.5781 20.4738 64.8515 22.3374 64.8182 24.7217C64.8348 26.002 65.0989 27.1314 65.6114 28.1054C66.1239 29.0815 66.7837 29.9256 67.5946 30.6386C68.2079 31.2059 68.8257 31.7289 69.4469 32.2074C70.0682 32.686 70.7237 33.1191 71.4143 33.5068C72.455 34.2061 73.3053 34.9002 73.9669 35.5921C74.6286 36.282 74.9699 37.0817 74.9918 37.9891C74.9576 39.1068 74.5785 39.9805 73.8555 40.6112C73.1316 41.2429 72.2681 41.564 71.2651 41.5757C70.0278 41.5662 69.0038 41.1362 68.1956 40.2837C67.3866 39.4301 66.9224 38.2078 66.8013 36.6148C66.2485 36.4563 65.829 36.4014 65.543 36.45C65.2578 36.5007 64.9989 36.5355 64.769 36.5545C64.7216 37.0215 64.6927 37.4345 64.6821 37.7948C64.6716 38.1561 64.6672 38.5395 64.669 38.9463C64.6584 39.9329 64.7304 40.6777 64.8866 41.1784C65.0419 41.6802 65.3499 42.1102 65.8097 42.4694C66.5231 43.0462 67.3515 43.5152 68.2948 43.8765C69.2381 44.2378 70.3271 44.4237 71.5635 44.4354C74.1863 44.3984 76.287 43.6093 77.8656 42.0722C79.4443 40.534 80.2542 38.4762 80.2954 35.8975Z" fill="#0075BF"/>
<path fill-rule="evenodd" clip-rule="evenodd" d="M119.143 20.1208C119.197 19.7531 119.213 19.3559 119.192 18.9291C119.171 18.5013 119.089 18.1041 118.944 17.7365C118.099 17.747 117.247 17.7861 116.389 17.8558C115.53 17.9255 114.827 17.9657 114.278 17.9752C113.873 17.9826 113.458 17.9847 113.032 17.9837C112.607 17.9826 112.228 17.9393 111.898 17.8558C111.653 17.8632 111.447 17.8939 111.283 17.9456C111.119 17.9984 110.975 18.028 110.854 18.0354C110.737 18.2361 110.687 18.5953 110.706 19.1151C110.724 19.6348 110.774 20.0088 110.854 20.2391C111.084 20.35 111.332 20.4123 111.599 20.425C111.867 20.4398 112.114 20.4557 112.344 20.4778C112.892 20.5962 113.31 20.7779 113.597 21.0229C113.884 21.268 114.029 21.585 114.031 21.9716C114.028 22.3128 113.96 22.7217 113.826 23.197C113.693 23.6724 113.513 24.3211 113.287 25.1398C112.952 26.3863 112.516 28.0027 111.978 29.9898C111.439 31.9758 110.866 33.8457 110.26 35.5993C110.214 35.7947 110.157 35.9881 110.086 36.1824C110.015 36.3779 109.908 36.4825 109.763 36.4962C109.664 36.4867 109.577 36.3863 109.502 36.1972C109.428 36.0081 109.366 35.7895 109.316 35.5401C108.925 34.3443 108.51 33.0037 108.068 31.5205C107.627 30.0362 107.219 28.6523 106.843 27.3667C106.468 26.0832 106.183 25.1408 105.992 24.5419C105.816 23.9724 105.682 23.4527 105.588 22.9805C105.494 22.5083 105.447 22.0931 105.446 21.7329C105.462 21.1877 105.689 20.8138 106.128 20.612C106.566 20.4102 107.116 20.2465 107.778 20.1208C107.848 19.5862 107.858 19.1341 107.809 18.7654C107.761 18.3946 107.685 18.0925 107.579 17.8558C106.674 17.8896 105.832 17.9266 105.055 17.9678C104.278 18.009 103.202 18.0322 101.823 18.0354C100.499 18.0333 99.4502 18.0375 98.678 18.0502C97.9058 18.0629 97.3162 18.0977 96.9099 18.1548C96.8406 18.5435 96.8055 18.9122 96.8046 19.264C96.8028 19.6147 96.8055 19.9401 96.8107 20.2391C96.8406 20.3278 96.9046 20.3891 97.0038 20.425C97.1012 20.462 97.203 20.4789 97.3065 20.4778C97.6119 20.63 97.8593 20.7895 98.0515 20.9564C98.2437 21.1222 98.4911 21.4614 98.7956 21.9716C98.8114 22.0044 98.9185 22.2843 99.1168 22.8157C99.3177 23.3449 99.516 23.9323 99.7152 24.5757C99.9136 25.218 100.021 25.725 100.036 26.0969C100.03 26.3325 100.005 26.5617 99.9618 26.7836C99.9179 27.0054 99.8934 27.2346 99.8872 27.4713C99.4608 29.0802 99.0597 30.5095 98.6842 31.7593C98.3077 33.01 97.8321 34.47 97.2574 36.1381C97.2074 36.2722 97.1468 36.4223 97.0775 36.586C97.009 36.7508 96.9353 36.8406 96.8599 36.8554C96.7414 36.8512 96.6572 36.7846 96.6063 36.6536C96.5554 36.5226 96.508 36.3515 96.4632 36.1381C96.3062 35.7324 95.9648 34.7964 95.4374 33.3312C94.9109 31.866 94.3485 30.2697 93.75 28.5446C93.1524 26.8205 92.6663 25.3659 92.2951 24.1837C92.1196 23.6661 91.9862 23.2361 91.8915 22.8907C91.7976 22.5463 91.7502 22.1596 91.7484 21.7329C91.7546 21.2289 91.9424 20.8476 92.3136 20.5898C92.6847 20.3331 93.2077 20.1757 93.8825 20.1208C93.9369 19.7246 93.9659 19.3697 93.9694 19.0549C93.9738 18.7411 93.929 18.3418 93.8334 17.8558C93.1551 17.8125 92.3408 17.8252 91.3896 17.8939C90.4383 17.9625 89.4003 17.99 88.2744 17.9752C87.7146 17.9773 87.0986 17.9752 86.4264 17.9678C85.7551 17.9625 85.1128 17.9446 84.5038 17.916C83.7343 17.8886 83.2376 17.9879 83.0147 18.2139C82.7918 18.44 82.6918 18.777 82.7173 19.227C82.7085 19.7722 82.7251 20.2296 82.7664 20.5972C83.3297 20.7662 83.8036 21.0557 84.1871 21.4645C84.5705 21.8723 84.9075 22.4607 85.1979 23.2266C85.8104 24.8704 86.566 26.9219 87.4645 29.3781C88.3631 31.8343 89.3064 34.3939 90.2936 37.0561C91.2799 39.7161 92.2126 42.1765 93.0893 44.4362C93.3095 44.527 93.5385 44.5989 93.7772 44.6528C94.0159 44.7056 94.2835 44.733 94.5775 44.7341C95.312 44.7362 95.9025 44.5228 96.3518 44.0929C96.8002 43.6618 97.1679 43.0005 97.4566 42.1068C97.9085 40.6902 98.3095 39.4478 98.6561 38.383C99.0027 37.317 99.3555 36.2247 99.7126 35.106C100.071 33.9862 100.493 32.6382 100.98 31.0578C101.009 30.9226 101.061 30.7736 101.14 30.6099C101.219 30.444 101.297 30.3553 101.376 30.3394C101.469 30.3479 101.531 30.407 101.562 30.519C101.593 30.6321 101.63 30.7514 101.674 30.8782C102.286 32.7903 102.986 34.9855 103.771 37.4649C104.557 39.9433 105.329 42.3466 106.091 44.6749C106.91 44.6897 107.53 44.6749 107.951 44.6306C108.373 44.5851 108.746 44.4214 109.068 44.1372C109.25 43.9788 109.445 43.7432 109.652 43.4284C109.858 43.1146 110.028 42.7734 110.16 42.4058C111.224 39.2365 112.323 35.9469 113.461 32.5357C114.598 29.1246 115.649 25.9817 116.612 23.1072C116.906 22.2547 117.26 21.5997 117.672 21.1423C118.086 20.686 118.574 20.3447 119.143 20.1208Z" fill="#0075BF"/>
<path fill-rule="evenodd" clip-rule="evenodd" d="M139.404 28.6674C139.318 25.1495 138.425 22.3532 136.726 20.2731C135.028 18.1941 132.746 17.1292 129.88 17.0796C126.683 17.1768 124.142 18.5205 122.257 21.1109C120.371 23.7001 119.406 26.956 119.362 30.8784C119.406 34.7903 120.334 38.006 122.146 40.5256C123.956 43.0451 126.386 44.3487 129.433 44.4354C131.524 44.4163 133.4 43.7096 135.06 42.3162C136.719 40.9238 137.987 38.9642 138.859 36.4362L137.421 35.3608C136.725 36.507 136.011 37.3067 135.278 37.7588C134.544 38.211 133.655 38.4275 132.611 38.4085C130.388 38.3547 128.602 37.5507 127.248 35.9957C125.895 34.4407 125.2 32.4557 125.162 30.0418C125.164 29.8347 125.172 29.635 125.186 29.4438C125.2 29.2516 125.209 29.053 125.212 28.8459L139.404 28.6674ZM133.753 23.2279C133.773 24.1808 133.523 24.9182 133.008 25.439C132.493 25.9598 131.599 26.2788 130.327 26.395C129.551 26.4574 128.868 26.5123 128.278 26.5588C127.689 26.6063 127.08 26.6317 126.453 26.6338C126.135 26.6317 125.914 26.5767 125.788 26.47C125.664 26.3633 125.603 26.2175 125.609 26.0369C125.619 25.5911 125.797 24.9879 126.143 24.2294C126.489 23.4688 126.939 22.7166 127.496 21.9729C127.936 21.3866 128.471 20.8858 129.104 20.4707C129.735 20.0566 130.358 19.8389 130.972 19.8199C131.761 19.8389 132.417 20.1611 132.94 20.7844C133.463 21.4088 133.733 22.2233 133.753 23.2279Z" fill="#0075BF"/>
<path fill-rule="evenodd" clip-rule="evenodd" d="M158.075 21.5004C158.075 20.5591 158.051 19.8123 158.001 19.2608C157.952 18.7072 157.876 18.2604 157.777 17.916C157.538 17.6815 157.236 17.523 156.872 17.4385C156.507 17.354 156.032 17.3138 155.445 17.3181C154.486 17.3012 153.65 17.6646 152.939 18.4093C152.228 19.1531 151.442 20.3827 150.582 22.0983C150.482 22.2272 150.383 22.3571 150.284 22.486C150.185 22.616 150.086 22.6857 149.987 22.6952C149.817 22.7132 149.709 22.6329 149.658 22.4565C149.607 22.28 149.585 21.9018 149.59 21.3219C149.594 20.0827 149.411 19.1097 149.039 18.4019C148.665 17.6931 148.073 17.3318 147.26 17.3181C146.888 17.3138 146.541 17.3836 146.219 17.5283C145.897 17.672 145.45 17.9213 144.881 18.2752C144.114 18.7516 143.477 19.171 142.97 19.5291C142.463 19.8873 141.925 20.1862 141.357 20.425V22.0381C141.906 22.7427 142.422 23.4505 142.908 24.1626C143.394 24.8735 143.688 25.4778 143.79 25.9743C143.966 27.2029 144.033 28.796 143.987 30.7482C143.942 32.7026 143.909 35.3552 143.889 38.7051C143.871 39.6601 143.734 40.3056 143.479 40.6405C143.224 40.9753 142.964 41.1877 142.697 41.2754C142.416 41.4 142.135 41.5247 141.853 41.6493C141.572 41.7729 141.341 41.8691 141.159 41.9324C141.109 42.0286 141.084 42.1374 141.084 42.262C141.084 42.3867 141.109 42.4966 141.159 42.5906C141.159 42.8198 141.184 43.047 141.233 43.2762C141.283 43.5033 141.357 43.7907 141.457 44.1361C142.352 44.0189 143.104 43.9291 143.714 43.8699C144.324 43.8097 145.076 43.7801 145.97 43.7801C147.159 43.7907 148.167 43.8298 148.995 43.8995C149.823 43.9682 150.484 44.0083 150.979 44.0189C151.392 44.0199 151.806 43.9703 152.219 43.8699C152.633 43.7685 153.096 43.5995 153.609 43.3649C153.62 43.0871 153.634 42.8103 153.653 42.5378C153.67 42.2652 153.622 41.8839 153.51 41.3947L150.235 40.857C150.204 40.4355 150.165 40.0235 150.117 39.6252C150.068 39.2249 150.04 38.8593 150.037 38.5255C149.947 37.2927 149.914 35.7715 149.938 33.9608C149.959 32.1522 149.975 30.4662 149.987 28.9037C149.963 27.4427 150.108 26.3588 150.42 25.6532C150.733 24.9475 151.349 24.5957 152.268 24.601C153.031 24.6401 153.827 24.7985 154.657 25.0774C155.488 25.3563 156.247 25.5158 156.934 25.556C157.307 25.6141 157.591 25.3933 157.783 24.8925C157.977 24.3918 158.074 23.2614 158.075 21.5004Z" fill="#0075BF"/>
<path fill-rule="evenodd" clip-rule="evenodd" d="M176.185 35.8973C176.167 34.524 175.856 33.2964 175.256 32.2147C174.655 31.1329 173.874 30.1885 172.914 29.3835C172.324 28.8775 171.669 28.3662 170.948 27.8517C170.228 27.3372 169.41 26.8122 168.497 26.2755C167.71 25.8012 167.071 25.2698 166.577 24.6846C166.083 24.0972 165.829 23.4327 165.813 22.6901C165.839 21.7773 166.173 21.0452 166.813 20.4927C167.454 19.9402 168.246 19.6561 169.191 19.6413C170.38 19.6297 171.306 19.9677 171.971 20.6575C172.637 21.3474 173.066 22.4629 173.26 24.0043C173.354 24.1585 173.687 24.2536 174.257 24.2884C174.829 24.3233 175.224 24.2684 175.442 24.1236C175.448 23.7803 175.473 23.4211 175.516 23.0482C175.559 22.6742 175.584 22.1967 175.59 21.6136C175.596 20.9005 175.46 20.2804 175.181 19.7543C174.902 19.2282 174.443 18.774 173.806 18.3905C173.09 17.9447 172.304 17.6151 171.45 17.4006C170.596 17.1851 169.662 17.0784 168.646 17.0795C166.23 17.1038 164.312 17.7862 162.89 19.13C161.469 20.4737 160.741 22.3372 160.708 24.7216C160.724 26.0019 160.989 27.1312 161.501 28.1052C162.013 29.0814 162.673 29.9254 163.483 30.6385C164.098 31.2058 164.715 31.7287 165.337 32.2073C165.958 32.6858 166.613 33.119 167.304 33.5067C168.344 34.206 169.195 34.9001 169.856 35.592C170.518 36.2819 170.86 37.0816 170.881 37.989C170.847 39.1067 170.468 39.9804 169.744 40.611C169.021 41.2428 168.159 41.5639 167.156 41.5755C165.917 41.566 164.893 41.1361 164.085 40.2835C163.276 39.43 162.811 38.2077 162.691 36.6146C162.139 36.4562 161.72 36.4012 161.433 36.4498C161.147 36.5005 160.889 36.5354 160.658 36.5544C160.61 37.0214 160.582 37.4344 160.571 37.7946C160.561 38.1559 160.558 38.5394 160.559 38.9461C160.548 39.9328 160.62 40.6776 160.775 41.1783C160.932 41.6801 161.24 42.1101 161.699 42.4693C162.413 43.0461 163.24 43.5151 164.184 43.8764C165.128 44.2377 166.217 44.4236 167.453 44.4352C170.076 44.3983 172.177 43.6091 173.755 42.0721C175.334 40.5339 176.144 38.476 176.185 35.8973Z" fill="#0075BF"/>
</svg>
