<svg width="38" height="38" viewBox="0 0 38 38" fill="none" xmlns="http://www.w3.org/2000/svg">
<path d="M18.9985 0.445351C8.75079 0.445351 0.44397 8.75217 0.44397 18.9999C0.44397 28.1563 7.07763 35.7575 15.7982 37.2741V37.2103H15.7991V24.1189H11.3209V18.9989H15.7991V14.9122C15.7991 10.262 18.869 7.48401 23.1084 7.48401C25.1382 7.48401 27.316 7.81748 27.316 7.81748V12.6021H24.9208C22.6164 12.6021 22.1979 14.0529 22.1979 15.5202V18.9989H27.316L26.4209 24.1189H22.1979V37.2103V37.2741C30.9194 35.7575 37.553 28.1563 37.553 18.9999C37.553 8.75217 29.2462 0.445351 18.9985 0.445351Z" fill="#1778F2"/>
</svg>
