<svg width="29" height="31" viewBox="0 0 29 31" fill="none" xmlns="http://www.w3.org/2000/svg">
<path d="M9.55659 14.7287H3.62491C1.6261 14.7287 0 13.0063 0 10.8892V4.60644C0 2.48932 1.6261 0.766968 3.62491 0.766968H9.55659C11.5554 0.766968 13.1815 2.48932 13.1815 4.60644V10.8892C13.1815 13.0063 11.5554 14.7287 9.55659 14.7287ZM3.62491 2.62853C2.59522 2.62853 1.75753 3.5158 1.75753 4.60644V10.8892C1.75753 11.9799 2.59522 12.8671 3.62491 12.8671H9.55659C10.5863 12.8671 11.424 11.9799 11.424 10.8892V4.60644C11.424 3.5158 10.5863 2.62853 9.55659 2.62853H3.62491Z" fill="white"/>
<path d="M24.4956 14.7287H18.5639C16.5651 14.7287 14.939 13.0063 14.939 10.8892V4.60644C14.939 2.48932 16.5651 0.766968 18.5639 0.766968H24.4956C26.4944 0.766968 28.1205 2.48932 28.1205 4.60644V10.8892C28.1205 13.0063 26.4944 14.7287 24.4956 14.7287ZM18.5639 2.62853C17.5342 2.62853 16.6965 3.5158 16.6965 4.60644V10.8892C16.6965 11.9799 17.5342 12.8671 18.5639 12.8671H24.4956C25.5253 12.8671 26.3629 11.9799 26.3629 10.8892V4.60644C26.3629 3.5158 25.5253 2.62853 24.4956 2.62853H18.5639Z" fill="white"/>
<path d="M21.5297 30.5519C17.8956 30.5519 14.939 27.4203 14.939 23.5711C14.939 19.7218 17.8956 16.5902 21.5297 16.5902C25.1639 16.5902 28.1205 19.7218 28.1205 23.5711C28.1205 27.4203 25.1639 30.5519 21.5297 30.5519ZM21.5297 18.4518C18.8647 18.4518 16.6965 20.7483 16.6965 23.5711C16.6965 26.3938 18.8647 28.6904 21.5297 28.6904C24.1947 28.6904 26.3629 26.3938 26.3629 23.5711C26.3629 20.7483 24.1947 18.4518 21.5297 18.4518Z" fill="white"/>
<path d="M9.55659 30.5519H3.62491C1.6261 30.5519 0 28.8296 0 26.7125V20.4297C0 18.3126 1.6261 16.5902 3.62491 16.5902H9.55659C11.5554 16.5902 13.1815 18.3126 13.1815 20.4297V26.7125C13.1815 28.8296 11.5554 30.5519 9.55659 30.5519ZM3.62491 18.4518C2.59522 18.4518 1.75753 19.339 1.75753 20.4297V26.7125C1.75753 27.8031 2.59522 28.6904 3.62491 28.6904H9.55659C10.5863 28.6904 11.424 27.8031 11.424 26.7125V20.4297C11.424 19.339 10.5863 18.4518 9.55659 18.4518H3.62491Z" fill="white"/>
</svg>
